<svg width="800" height="400" viewBox="0 0 800 400" xmlns="http://www.w3.org/2000/svg">
  <defs>
    <linearGradient id="aiBg" x1="0%" y1="0%" x2="100%" y2="100%">
      <stop offset="0%" style="stop-color:#0f172a;stop-opacity:1" />
      <stop offset="100%" style="stop-color:#1e293b;stop-opacity:1" />
    </linearGradient>
    <radialGradient id="aiGlow" cx="50%" cy="50%" r="50%">
      <stop offset="0%" style="stop-color:#8b5cf6;stop-opacity:0.6" />
      <stop offset="100%" style="stop-color:#8b5cf6;stop-opacity:0" />
    </radialGradient>
  </defs>
  
  <!-- Background -->
  <rect width="800" height="400" fill="url(#aiBg)"/>
  
  <!-- AI Brain (center) -->
  <circle cx="400" cy="200" r="70" fill="url(#aiGlow)"/>
  <circle cx="400" cy="200" r="50" fill="#1e293b" stroke="#8b5cf6" stroke-width="3"/>
  
  <!-- Neural network pattern -->
  <g stroke="#8b5cf6" stroke-width="1" fill="#8b5cf6" opacity="0.6">
    <circle cx="380" cy="180" r="3"/>
    <circle cx="420" cy="180" r="3"/>
    <circle cx="380" cy="220" r="3"/>
    <circle cx="420" cy="220" r="3"/>
    <circle cx="400" cy="200" r="4"/>
    
    <line x1="380" y1="180" x2="400" y2="200"/>
    <line x1="420" y1="180" x2="400" y2="200"/>
    <line x1="380" y1="220" x2="400" y2="200"/>
    <line x1="420" y1="220" x2="400" y2="200"/>
  </g>
  
  <text x="400" y="205" text-anchor="middle" fill="#8b5cf6" font-family="Inter" font-size="14" font-weight="bold">AI</text>
  
  <!-- Data Quality Monitors -->
  <g>
    <!-- Anomaly Detection -->
    <rect x="150" y="100" width="100" height="60" rx="8" fill="#374151" stroke="#ef4444" stroke-width="2"/>
    <text x="200" y="120" text-anchor="middle" fill="#ef4444" font-family="Inter" font-size="10" font-weight="bold">ANOMALY</text>
    <text x="200" y="135" text-anchor="middle" fill="#ef4444" font-family="Inter" font-size="10" font-weight="bold">DETECTION</text>
    <text x="200" y="150" text-anchor="middle" fill="#cbd5e1" font-family="Inter" font-size="8">🚨 Alert</text>
    
    <!-- Predictive Analysis -->
    <rect x="550" y="100" width="100" height="60" rx="8" fill="#374151" stroke="#10b981" stroke-width="2"/>
    <text x="600" y="120" text-anchor="middle" fill="#10b981" font-family="Inter" font-size="10" font-weight="bold">PREDICTIVE</text>
    <text x="600" y="135" text-anchor="middle" fill="#10b981" font-family="Inter" font-size="10" font-weight="bold">ANALYSIS</text>
    <text x="600" y="150" text-anchor="middle" fill="#cbd5e1" font-family="Inter" font-size="8">📈 Forecast</text>
    
    <!-- Schema Evolution -->
    <rect x="150" y="240" width="100" height="60" rx="8" fill="#374151" stroke="#f59e0b" stroke-width="2"/>
    <text x="200" y="260" text-anchor="middle" fill="#f59e0b" font-family="Inter" font-size="10" font-weight="bold">SCHEMA</text>
    <text x="200" y="275" text-anchor="middle" fill="#f59e0b" font-family="Inter" font-size="10" font-weight="bold">EVOLUTION</text>
    <text x="200" y="290" text-anchor="middle" fill="#cbd5e1" font-family="Inter" font-size="8">🔄 Adapt</text>
    
    <!-- Smart Alerts -->
    <rect x="550" y="240" width="100" height="60" rx="8" fill="#374151" stroke="#06b6d4" stroke-width="2"/>
    <text x="600" y="260" text-anchor="middle" fill="#06b6d4" font-family="Inter" font-size="10" font-weight="bold">SMART</text>
    <text x="600" y="275" text-anchor="middle" fill="#06b6d4" font-family="Inter" font-size="10" font-weight="bold">ALERTS</text>
    <text x="600" y="290" text-anchor="middle" fill="#cbd5e1" font-family="Inter" font-size="8">🧠 Context</text>
  </g>
  
  <!-- Connections -->
  <g stroke="#8b5cf6" stroke-width="2" fill="none" opacity="0.6" stroke-dasharray="3,3">
    <path d="M250 130 Q325 130 350 170"/>
    <path d="M550 130 Q475 130 450 170"/>
    <path d="M250 270 Q325 270 350 230"/>
    <path d="M550 270 Q475 270 450 230"/>
  </g>
  
  <!-- Data flow particles -->
  <g fill="#ec4899" opacity="0.8">
    <circle cx="300" cy="130" r="2">
      <animate attributeName="cx" values="300;350;300" dur="3s" repeatCount="indefinite"/>
    </circle>
    <circle cx="500" cy="270" r="2">
      <animate attributeName="cx" values="500;450;500" dur="3s" repeatCount="indefinite"/>
    </circle>
  </g>
  
  <!-- Title -->
  <text x="400" y="50" text-anchor="middle" fill="#f8fafc" font-family="Inter" font-size="24" font-weight="bold">AI-Powered Data Quality</text>
  <text x="400" y="350" text-anchor="middle" fill="#94a3b8" font-family="Inter" font-size="14">Intelligent • Adaptive • Proactive</text>
</svg>