<svg width="192" height="192" viewBox="0 0 192 192" xmlns="http://www.w3.org/2000/svg">
  <defs>
    <linearGradient id="iconBg" x1="0%" y1="0%" x2="100%" y2="100%">
      <stop offset="0%" style="stop-color:#3b82f6;stop-opacity:1" />
      <stop offset="100%" style="stop-color:#8b5cf6;stop-opacity:1" />
    </linearGradient>
  </defs>
  
  <!-- Background -->
  <rect width="192" height="192" rx="32" fill="url(#iconBg)"/>
  
  <!-- Data pipeline icon -->
  <g stroke="#ffffff" stroke-width="4" fill="none">
    <circle cx="60" cy="96" r="16"/>
    <circle cx="132" cy="96" r="16"/>
    <path d="M76 96 L116 96"/>
    <polygon points="110,90 122,96 110,102" fill="#ffffff"/>
  </g>
  
  <!-- AI brain representation -->
  <g fill="#ffffff" opacity="0.8">
    <circle cx="96" cy="60" r="3"/>
    <circle cx="96" cy="132" r="3"/>
    <circle cx="60" cy="60" r="2"/>
    <circle cx="132" cy="60" r="2"/>
    <circle cx="60" cy="132" r="2"/>
    <circle cx="132" cy="132" r="2"/>
  </g>
  
  <!-- Connect the dots -->
  <g stroke="#ffffff" stroke-width="1" opacity="0.6">
    <path d="M96 60 L60 60 M96 60 L132 60"/>
    <path d="M96 132 L60 132 M96 132 L132 132"/>
    <path d="M60 60 L60 132 M132 60 L132 132"/>
  </g>
</svg>