<svg width="512" height="512" viewBox="0 0 512 512" xmlns="http://www.w3.org/2000/svg">
  <defs>
    <linearGradient id="iconBg512" x1="0%" y1="0%" x2="100%" y2="100%">
      <stop offset="0%" style="stop-color:#3b82f6;stop-opacity:1" />
      <stop offset="100%" style="stop-color:#8b5cf6;stop-opacity:1" />
    </linearGradient>
  </defs>
  
  <!-- Background -->
  <rect width="512" height="512" rx="80" fill="url(#iconBg512)"/>
  
  <!-- Data pipeline icon -->
  <g stroke="#ffffff" stroke-width="12" fill="none">
    <circle cx="160" cy="256" r="40"/>
    <circle cx="352" cy="256" r="40"/>
    <path d="M200 256 L312 256"/>
    <polygon points="300,240 330,256 300,272" fill="#ffffff"/>
  </g>
  
  <!-- AI neural network -->
  <g fill="#ffffff" opacity="0.8">
    <circle cx="256" cy="160" r="8"/>
    <circle cx="256" cy="352" r="8"/>
    <circle cx="160" cy="160" r="6"/>
    <circle cx="352" cy="160" r="6"/>
    <circle cx="160" cy="352" r="6"/>
    <circle cx="352" cy="352" r="6"/>
  </g>
  
  <!-- Neural connections -->
  <g stroke="#ffffff" stroke-width="3" opacity="0.6">
    <path d="M256 160 L160 160 M256 160 L352 160"/>
    <path d="M256 352 L160 352 M256 352 L352 352"/>
    <path d="M160 160 L160 352 M352 160 L352 352"/>
    <path d="M160 160 L256 256 M352 160 L256 256"/>
    <path d="M160 352 L256 256 M352 352 L256 256"/>
  </g>
  
  <!-- Brand text -->
  <text x="256" y="420" text-anchor="middle" fill="#ffffff" font-family="Inter" font-size="32" font-weight="bold" opacity="0.9">DATA AI</text>
</svg>