<svg width="200" height="200" viewBox="0 0 200 200" xmlns="http://www.w3.org/2000/svg">
  <defs>
    <linearGradient id="profileBg" x1="0%" y1="0%" x2="100%" y2="100%">
      <stop offset="0%" style="stop-color:#3b82f6;stop-opacity:1" />
      <stop offset="100%" style="stop-color:#8b5cf6;stop-opacity:1" />
    </linearGradient>
  </defs>
  
  <!-- Background circle -->
  <circle cx="100" cy="100" r="100" fill="url(#profileBg)"/>
  
  <!-- Professional avatar representation -->
  <circle cx="100" cy="80" r="35" fill="#ffffff" opacity="0.9"/>
  <path d="M100 115 Q85 125 70 140 Q70 160 100 160 Q130 160 130 140 Q115 125 100 115" fill="#ffffff" opacity="0.9"/>
  
  <!-- Tech elements -->
  <g fill="#ffffff" opacity="0.3">
    <rect x="60" y="40" width="8" height="8" rx="2"/>
    <rect x="132" y="45" width="6" height="6" rx="1"/>
    <rect x="45" y="120" width="10" height="10" rx="2"/>
    <rect x="145" y="125" width="7" height="7" rx="1"/>
  </g>
  
  <!-- Data engineering symbols -->
  <g stroke="#ffffff" stroke-width="2" fill="none" opacity="0.4">
    <circle cx="160" cy="70" r="8"/>
    <path d="M40 80 L50 80 M45 75 L45 85"/>
    <path d="M150 160 L160 160 M155 155 L155 165"/>
  </g>
</svg>